<svg xmlns="http://www.w3.org/2000/svg" width="878" height="574" viewBox="42 21 878 574" font-family="'TeX Gyre Pagella', Palatino, 'Palatino Linotype', Georgia, serif">
<rect x="0" y="0" width="980" height="612" fill="#ffffff"/>
<text x="48" y="40" font-size="18" font-weight="bold" fill="#1a1a1a">AI judges and people agreed where the evidence stayed visible — and split where it was hidden</text>
<text x="48" y="66" font-size="13" fill="#444">Judge–human rank agreement (Spearman ρ) by rubric criterion, grouped by whether the process evidence</text>
<text x="48" y="84" font-size="13" fill="#444">stayed visible after both answers were flattened to the same shape. Reference: 6 unaided raters. Gate: <tspan font-weight="bold">FAIL</tspan>.</text>
<line x1="300" y1="128" x2="784" y2="128" stroke="#888" stroke-width="1"/>
<line x1="300.0" y1="124" x2="300.0" y2="128" stroke="#888"/>
<text x="300.0" y="120" font-size="11" fill="#666" text-anchor="middle">-1.0</text>
<line x1="421.0" y1="124" x2="421.0" y2="128" stroke="#888"/>
<text x="421.0" y="120" font-size="11" fill="#666" text-anchor="middle">-0.5</text>
<line x1="542.0" y1="124" x2="542.0" y2="128" stroke="#888"/>
<text x="542.0" y="120" font-size="11" fill="#666" text-anchor="middle">0.0</text>
<line x1="663.0" y1="124" x2="663.0" y2="128" stroke="#888"/>
<text x="663.0" y="120" font-size="11" fill="#666" text-anchor="middle">+0.5</text>
<line x1="784.0" y1="124" x2="784.0" y2="128" stroke="#888"/>
<text x="784.0" y="120" font-size="11" fill="#666" text-anchor="middle">+1.0</text>
<text x="542" y="98" font-size="11.5" fill="#666" text-anchor="middle" font-style="italic">Spearman ρ  (−1 = ranked oppositely · 0 = unrelated · +1 = same order)</text>
<line x1="542.0" y1="128" x2="542.0" y2="492" stroke="#cccccc" stroke-width="1" stroke-dasharray="2,3"/>
<line x1="48" y1="168" x2="784" y2="168" stroke="#e6e6e6"/>
<text x="48" y="181" font-size="11.5" font-weight="bold" fill="#1f6f8b" letter-spacing="0.3">EVIDENCE VISIBLE AFTER BLINDING</text>
<line x1="300" y1="190.0" x2="784" y2="190.0" stroke="#f2f2f2" stroke-width="1"/>
<line x1="711.4" y1="176.0" x2="711.4" y2="204.0" stroke="#2e7d5b" stroke-width="1.4" opacity="0.55"/>
<line x1="638.8" y1="176.0" x2="638.8" y2="204.0" stroke="#b5483d" stroke-width="1.4" opacity="0.55"/>
<text x="274" y="195.0" font-size="13.5" fill="#1a1a1a" text-anchor="end"><tspan font-weight="bold">C1</tspan>  Verifiable-artifact citation</text>
<circle cx="729.5" cy="190.0" r="7" fill="#1f6f8b" stroke="#ffffff" stroke-width="1"/>
<text x="798" y="191.0" font-size="13" fill="#1a1a1a"><tspan font-weight="bold">ρ =  0.77</tspan></text>
<text x="798" y="206.0" font-size="10.5" fill="#2e7d5b">PASS · n=4</text>
<line x1="300" y1="236.0" x2="784" y2="236.0" stroke="#f2f2f2" stroke-width="1"/>
<line x1="711.4" y1="222.0" x2="711.4" y2="250.0" stroke="#2e7d5b" stroke-width="1.4" opacity="0.55"/>
<line x1="638.8" y1="222.0" x2="638.8" y2="250.0" stroke="#b5483d" stroke-width="1.4" opacity="0.55"/>
<text x="274" y="241.0" font-size="13.5" fill="#1a1a1a" text-anchor="end"><tspan font-weight="bold">C5a</tspan>  Factual accuracy vs. briefing</text>
<text x="306.0" y="241.0" font-size="12" fill="#777" font-style="italic">ρ undefined — judges scored a flat 6/7 (no variance to rank)</text>
<text x="798" y="237.0" font-size="13" fill="#1a1a1a"><tspan font-weight="bold">ρ = n/a</tspan></text>
<text x="798" y="252.0" font-size="10.5" fill="#777777">INDETERMINATE · n=4</text>
<line x1="48" y1="286" x2="784" y2="286" stroke="#e6e6e6"/>
<text x="48" y="299" font-size="11.5" font-weight="bold" fill="#c98a1b" letter-spacing="0.3">PARTLY VISIBLE</text>
<line x1="300" y1="308.0" x2="784" y2="308.0" stroke="#f2f2f2" stroke-width="1"/>
<line x1="711.4" y1="294.0" x2="711.4" y2="322.0" stroke="#2e7d5b" stroke-width="1.4" opacity="0.55"/>
<line x1="638.8" y1="294.0" x2="638.8" y2="322.0" stroke="#b5483d" stroke-width="1.4" opacity="0.55"/>
<text x="274" y="313.0" font-size="13.5" fill="#1a1a1a" text-anchor="end"><tspan font-weight="bold">C5b</tspan>  Engagement with source</text>
<rect x="667.2" y="301.5" width="13" height="13" fill="#c98a1b" stroke="#ffffff" stroke-width="1"/>
<text x="798" y="309.0" font-size="13" fill="#1a1a1a"><tspan font-weight="bold">ρ =  0.54</tspan></text>
<text x="798" y="324.0" font-size="10.5" fill="#c98a1b">BORDERLINE · n=4</text>
<line x1="300" y1="354.0" x2="784" y2="354.0" stroke="#f2f2f2" stroke-width="1"/>
<line x1="663.0" y1="340.0" x2="663.0" y2="368.0" stroke="#2e7d5b" stroke-width="1.4" opacity="0.55"/>
<line x1="590.4" y1="340.0" x2="590.4" y2="368.0" stroke="#b5483d" stroke-width="1.4" opacity="0.55"/>
<text x="274" y="359.0" font-size="13.5" fill="#1a1a1a" text-anchor="end"><tspan font-weight="bold">C4</tspan>  Calibrated confidence</text>
<rect x="535.5" y="347.5" width="13" height="13" fill="#c98a1b" stroke="#ffffff" stroke-width="1"/>
<text x="798" y="355.0" font-size="13" fill="#1a1a1a"><tspan font-weight="bold">ρ =  0.00</tspan></text>
<text x="798" y="370.0" font-size="10.5" fill="#b5483d">FAIL · n=4</text>
<line x1="48" y1="404" x2="784" y2="404" stroke="#e6e6e6"/>
<text x="48" y="417" font-size="11.5" font-weight="bold" fill="#9b2d2d" letter-spacing="0.3">EVIDENCE STRIPPED BY BLINDING</text>
<line x1="300" y1="426.0" x2="784" y2="426.0" stroke="#f2f2f2" stroke-width="1"/>
<line x1="711.4" y1="412.0" x2="711.4" y2="440.0" stroke="#2e7d5b" stroke-width="1.4" opacity="0.55"/>
<line x1="638.8" y1="412.0" x2="638.8" y2="440.0" stroke="#b5483d" stroke-width="1.4" opacity="0.55"/>
<text x="274" y="431.0" font-size="13.5" fill="#1a1a1a" text-anchor="end"><tspan font-weight="bold">C2</tspan>  Substantive vs. theatrical</text>
<polygon points="618.5,418.2 611.3,432.0 625.7,432.0" fill="#9b2d2d" stroke="#ffffff" stroke-width="1"/>
<text x="798" y="427.0" font-size="13" fill="#1a1a1a"><tspan font-weight="bold">ρ =  0.32</tspan></text>
<text x="798" y="442.0" font-size="10.5" fill="#b5483d">FAIL · n=4</text>
<line x1="300" y1="472.0" x2="784" y2="472.0" stroke="#f2f2f2" stroke-width="1"/>
<line x1="663.0" y1="458.0" x2="663.0" y2="486.0" stroke="#2e7d5b" stroke-width="1.4" opacity="0.55"/>
<line x1="590.4" y1="458.0" x2="590.4" y2="486.0" stroke="#b5483d" stroke-width="1.4" opacity="0.55"/>
<text x="274" y="477.0" font-size="13.5" fill="#1a1a1a" text-anchor="end"><tspan font-weight="bold">C3</tspan>  Missed real concerns</text>
<polygon points="421.0,464.2 413.8,478.0 428.2,478.0" fill="#9b2d2d" stroke="#ffffff" stroke-width="1"/>
<text x="798" y="473.0" font-size="13" fill="#1a1a1a"><tspan font-weight="bold">ρ = -0.50</tspan></text>
<text x="798" y="488.0" font-size="10.5" fill="#b5483d">FAIL · n=4</text>
<text x="48" y="522" font-size="11.5" font-weight="bold" fill="#444">Visibility group</text>
<circle cx="158" cy="518" r="6" fill="#1f6f8b"/>
<text x="170" y="522" font-size="11.5" fill="#444">Evidence visible after blinding</text>
<rect x="381.70000000000005" y="512" width="12" height="12" fill="#c98a1b"/>
<text x="399.70000000000005" y="522" font-size="11.5" fill="#444">Partly visible</text>
<polygon points="503.50000000000006,511 497.00000000000006,524 510.00000000000006,524" fill="#9b2d2d"/>
<text x="515.5" y="522" font-size="11.5" fill="#444">Evidence stripped by blinding</text>
<line x1="50" y1="534" x2="50" y2="548" stroke="#2e7d5b" stroke-width="1.6" opacity="0.7"/><text x="58" y="544" font-size="11" fill="#555">pass threshold</text><line x1="166" y1="534" x2="166" y2="548" stroke="#b5483d" stroke-width="1.6" opacity="0.7"/><text x="174" y="544" font-size="11" fill="#555">fail threshold (both vary by criterion tier: high-stakes 0.70/0.40, inference-heavy 0.50/0.20)</text>
<text x="48" y="570" font-size="11" fill="#8a2f2f" font-style="italic">Directional, small-n: each ρ is computed on only n=4 paired points — small-sample rank correlations are highly unstable (§4.5).</text>
<text x="48" y="586" font-size="11" fill="#8a2f2f" font-style="italic">The pattern is directional, not clean: C4 (partly visible) also fails. Source: analysis/primary-results.json · gate_primary_unaided.</text>
</svg>