<?xml version="1.0" encoding="utf-8" standalone="no"?>
<!DOCTYPE svg PUBLIC "-//W3C//DTD SVG 1.1//EN"
  "http://www.w3.org/Graphics/SVG/1.1/DTD/svg11.dtd">
<svg xmlns:xlink="http://www.w3.org/1999/xlink" width="662.4pt" height="453.6pt" viewBox="0 0 662.4 453.6" xmlns="http://www.w3.org/2000/svg" version="1.1">
 <metadata>
  <rdf:RDF xmlns:dc="http://purl.org/dc/elements/1.1/" xmlns:cc="http://creativecommons.org/ns#" xmlns:rdf="http://www.w3.org/1999/02/22-rdf-syntax-ns#">
   <cc:Work>
    <dc:type rdf:resource="http://purl.org/dc/dcmitype/StillImage"/>
    <dc:date>2026-06-28T03:16:11.678039</dc:date>
    <dc:format>image/svg+xml</dc:format>
    <dc:creator>
     <cc:Agent>
      <dc:title>Matplotlib v3.6.3, https://matplotlib.org/</dc:title>
     </cc:Agent>
    </dc:creator>
   </cc:Work>
  </rdf:RDF>
 </metadata>
 <defs>
  <style type="text/css">*{stroke-linejoin: round; stroke-linecap: butt}</style>
 </defs>
 <g id="figure_1">
  <g id="patch_1">
   <path d="M 0 453.6 
L 662.4 453.6 
L 662.4 0 
L 0 0 
z
" style="fill: #ffffff"/>
  </g>
  <g id="axes_1">
   <g id="patch_2">
    <path d="M 56.304 394.632 
L 463.68 394.632 
L 463.68 63.504 
L 56.304 63.504 
z
" style="fill: #ffffff"/>
   </g>
   <g id="matplotlib.axis_1">
    <g id="xtick_1">
     <g id="line2d_1"/>
     <g id="text_1">
      <!-- $\bf{B}$ -->
      <g transform="translate(133.5442 406.117312)">
       <text>
        <tspan style="font: 700 11px 'DejaVu Sans'" x="0" y="-0.984375">B</tspan>
       </text>
      </g>
      <text style="font: 11px 'TeX Gyre Pagella', 'Palatino', 'DejaVu Serif', serif" transform="translate(108.2167 418.79)">neutral pass</text>
     </g>
    </g>
    <g id="xtick_2">
     <g id="line2d_2"/>
     <g id="text_2">
      <!-- $\bf{S}$ -->
      <g transform="translate(296.7146 406.117312)">
       <text>
        <tspan style="font: 700 11px 'DejaVu Sans'" x="0" y="-0.828125">S</tspan>
       </text>
      </g>
      <text style="font: 11px 'TeX Gyre Pagella', 'Palatino', 'DejaVu Serif', serif" transform="translate(246.895772 418.79)">SPARRING ceremony</text>
     </g>
    </g>
    <g id="xtick_3">
     <g id="line2d_3"/>
     <g id="text_3">
      <!-- $\bf{T}$ -->
      <g transform="translate(459.885 406.117312)">
       <text>
        <tspan style="font: 700 11px 'DejaVu Sans'" x="0" y="-0.984375">T</tspan>
       </text>
      </g>
      <text style="font: 11px 'TeX Gyre Pagella', 'Palatino', 'DejaVu Serif', serif" transform="translate(444.903516 418.79)">placebo</text>
     </g>
    </g>
   </g>
   <g id="matplotlib.axis_2">
    <g id="ytick_1">
     <g id="line2d_4"/>
     <g id="text_4">
      <text style="fill: #666666; font: 9px 'TeX Gyre Pagella', 'Palatino', 'DejaVu Serif', serif; text-anchor: end" x="52.804" y="335.812219" transform="rotate(-0 52.804 335.812219)">40</text>
     </g>
    </g>
    <g id="ytick_2">
     <g id="line2d_5"/>
     <g id="text_5">
      <text style="fill: #666666; font: 9px 'TeX Gyre Pagella', 'Palatino', 'DejaVu Serif', serif; text-anchor: end" x="52.804" y="253.030219" transform="rotate(-0 52.804 253.030219)">60</text>
     </g>
    </g>
    <g id="ytick_3">
     <g id="line2d_6"/>
     <g id="text_6">
      <text style="fill: #666666; font: 9px 'TeX Gyre Pagella', 'Palatino', 'DejaVu Serif', serif; text-anchor: end" x="52.804" y="170.248219" transform="rotate(-0 52.804 170.248219)">80</text>
     </g>
    </g>
    <g id="ytick_4">
     <g id="line2d_7"/>
     <g id="text_7">
      <text style="fill: #666666; font: 9px 'TeX Gyre Pagella', 'Palatino', 'DejaVu Serif', serif; text-anchor: end" x="52.804" y="87.466219" transform="rotate(-0 52.804 87.466219)">100%</text>
     </g>
    </g>
    <g id="text_8">
     <text style="fill: #444444; font: 10px 'TeX Gyre Pagella', 'Palatino', 'DejaVu Serif', serif; text-anchor: middle" x="24.914313" y="229.068" transform="rotate(-90 24.914313 229.068)">Grounding rate — share of concerns backed by a checkable artifact</text>
    </g>
   </g>
   <g id="line2d_8">
    <path d="M 137.7792 84.1995 
L 300.7296 84.1995 
L 463.68 166.9815 
" clip-path="url(#pb6a1fd2d42)" style="fill: none; stroke: #5b7f93; stroke-opacity: 0.85; stroke-width: 1.5; stroke-linecap: round"/>
   </g>
   <g id="line2d_9">
    <path d="M 137.7792 84.1995 
L 300.7296 84.1995 
L 463.68 111.93147 
" clip-path="url(#pb6a1fd2d42)" style="fill: none; stroke: #9aa0a6; stroke-opacity: 0.85; stroke-width: 1.5; stroke-linecap: round"/>
   </g>
   <g id="patch_3">
    <path d="M 56.304 394.632 
L 56.304 63.504 
" style="fill: none; stroke: #cccccc; stroke-width: 0.8; stroke-linejoin: miter; stroke-linecap: square"/>
   </g>
   <g id="line2d_10">
    <path d="M 137.7792 214.99506 
L 300.7296 99.92808 
L 463.68 347.44626 
" clip-path="url(#pb6a1fd2d42)" style="fill: none; stroke: #9b2d2d; stroke-width: 2.6; stroke-linecap: round"/>
   </g>
   <g id="text_9">
    <text style="fill: #9b2d2d; font: 9px 'TeX Gyre Pagella', 'Palatino', 'DejaVu Serif', serif; text-anchor: end" x="128.7792" y="216.99756" transform="rotate(-0 128.7792 216.99756)">68</text>
   </g>
   <g id="text_10">
    <text style="fill: #9b2d2d; font: 9px 'TeX Gyre Pagella', 'Palatino', 'DejaVu Serif', serif; text-anchor: middle" x="300.7296" y="119.461518" transform="rotate(-0 300.7296 119.461518)">96</text>
   </g>
   <g id="text_11">
    <text style="fill: #9b2d2d; font: 700 9px 'TeX Gyre Pagella', 'Palatino', 'DejaVu Serif', serif; text-anchor: start" x="472.68" y="349.525401" transform="rotate(-0 472.68 349.525401)">36</text>
   </g>
   <g id="text_12">
    <text style="fill: #9b2d2d; font: 10.5px 'TeX Gyre Pagella', 'Palatino', 'DejaVu Serif', serif; text-anchor: start" x="489.68" y="349.771846" transform="rotate(-0 489.68 349.771846)">  Security / CWE — external</text>
   </g>
   <g id="line2d_11">
    <path d="M 137.7792 113.58711 
L 300.7296 99.10026 
L 463.68 261.76689 
" clip-path="url(#pb6a1fd2d42)" style="fill: none; stroke: #cf7a30; stroke-width: 2.6; stroke-linecap: round"/>
   </g>
   <g id="text_13">
    <text style="fill: #cf7a30; font: 9px 'TeX Gyre Pagella', 'Palatino', 'DejaVu Serif', serif; text-anchor: end" x="128.7792" y="115.58961" transform="rotate(-0 128.7792 115.58961)">93</text>
   </g>
   <g id="text_14">
    <text style="fill: #cf7a30; font: 9px 'TeX Gyre Pagella', 'Palatino', 'DejaVu Serif', serif; text-anchor: middle" x="300.7296" y="118.633698" transform="rotate(-0 300.7296 118.633698)">96</text>
   </g>
   <g id="text_15">
    <text style="fill: #cf7a30; font: 700 9px 'TeX Gyre Pagella', 'Palatino', 'DejaVu Serif', serif; text-anchor: start" x="472.68" y="263.846031" transform="rotate(-0 472.68 263.846031)">57</text>
   </g>
   <g id="text_16">
    <text style="fill: #cf7a30; font: 10.5px 'TeX Gyre Pagella', 'Palatino', 'DejaVu Serif', serif; text-anchor: start" x="489.68" y="264.10314" transform="rotate(-0 489.68 264.10314)">  Citations — external</text>
   </g>
   <g id="text_17">
    <text style="fill: #5b7f93; font: 9px 'TeX Gyre Pagella', 'Palatino', 'DejaVu Serif', serif; text-anchor: end" x="128.7792" y="86.202" transform="rotate(-0 128.7792 86.202)">100</text>
   </g>
   <g id="text_18">
    <text style="fill: #5b7f93; font: 9px 'TeX Gyre Pagella', 'Palatino', 'DejaVu Serif', serif; text-anchor: middle" x="300.7296" y="72.671063" transform="rotate(-0 300.7296 72.671063)">100</text>
   </g>
   <g id="text_19">
    <text style="fill: #5b7f93; font: 700 9px 'TeX Gyre Pagella', 'Palatino', 'DejaVu Serif', serif; text-anchor: start" x="472.68" y="169.060641" transform="rotate(-0 472.68 169.060641)">80</text>
   </g>
   <g id="text_20">
    <text style="fill: #5b7f93; font: 10.5px 'TeX Gyre Pagella', 'Palatino', 'DejaVu Serif', serif; text-anchor: start" x="489.68" y="169.31775" transform="rotate(-0 489.68 169.31775)">  Overclaim vs. spec — in-briefing</text>
   </g>
   <g id="text_21">
    <text style="fill: #9aa0a6; font: 9px 'TeX Gyre Pagella', 'Palatino', 'DejaVu Serif', serif; text-anchor: end" x="128.7792" y="86.202" transform="rotate(-0 128.7792 86.202)">100</text>
   </g>
   <g id="text_22">
    <text style="fill: #9aa0a6; font: 9px 'TeX Gyre Pagella', 'Palatino', 'DejaVu Serif', serif; text-anchor: middle" x="300.7296" y="72.671063" transform="rotate(-0 300.7296 72.671063)">100</text>
   </g>
   <g id="text_23">
    <text style="fill: #9aa0a6; font: 700 9px 'TeX Gyre Pagella', 'Palatino', 'DejaVu Serif', serif; text-anchor: start" x="472.68" y="114.010611" transform="rotate(-0 472.68 114.010611)">93</text>
   </g>
   <g id="text_24">
    <text style="fill: #9aa0a6; font: 10.5px 'TeX Gyre Pagella', 'Palatino', 'DejaVu Serif', serif; text-anchor: start" x="489.68" y="114.26772" transform="rotate(-0 489.68 114.26772)">  Buried contradiction — in-briefing</text>
   </g>
   <g id="patch_4">
    <path d="M 463.68 344.330284 
Q 463.68 223.686599 463.68 103.042914 
" style="fill: none; stroke: #555555; stroke-linecap: round"/>
    <path d="M 465.68 340.330284 
L 463.68 344.330284 
L 461.68 340.330284 
" style="fill: none; stroke: #555555; stroke-linecap: round"/>
    <path d="M 461.68 107.042914 
L 463.68 103.042914 
L 465.68 107.042914 
" style="fill: none; stroke: #555555; stroke-linecap: round"/>
   </g>
   <g id="text_25">
    <text style="fill: #555555; font: 8.5px 'TeX Gyre Pagella', 'Palatino', 'DejaVu Serif', serif" transform="translate(471.68 220.673522)">S − T = 60 pts</text>
    <text style="fill: #555555; font: 8.5px 'TeX Gyre Pagella', 'Palatino', 'DejaVu Serif', serif" transform="translate(471.68 230.466053)">on security</text>
   </g>
   <g id="text_26">
    <text style="fill: #444444; font: 10px 'TeX Gyre Pagella', 'Palatino', 'DejaVu Serif', serif; text-anchor: start" x="56.304" y="49.504" transform="rotate(-0 56.304 49.504)">Share of concerns backed by a checkable artifact, by defect family and condition. Seeded-defect pilot: 12 cases, 236 concerns.</text>
   </g>
   <g id="line2d_12">
    <defs>
     <path id="m40f5f2824d" d="M 0 3 
C 0.795609 3 1.55874 2.683901 2.12132 2.12132 
C 2.683901 1.55874 3 0.795609 3 0 
C 3 -0.795609 2.683901 -1.55874 2.12132 -2.12132 
C 1.55874 -2.683901 0.795609 -3 0 -3 
C -0.795609 -3 -1.55874 -2.683901 -2.12132 -2.12132 
C -2.683901 -1.55874 -3 -0.795609 -3 0 
C -3 0.795609 -2.683901 1.55874 -2.12132 2.12132 
C -1.55874 2.683901 -0.795609 3 0 3 
z
" style="stroke: #ffffff; stroke-width: 0.8"/>
    </defs>
    <g clip-path="url(#pb6a1fd2d42)">
     <use xlink:href="#m40f5f2824d" x="137.7792" y="214.99506" style="fill: #9b2d2d; stroke: #ffffff; stroke-width: 0.8"/>
     <use xlink:href="#m40f5f2824d" x="300.7296" y="99.92808" style="fill: #9b2d2d; stroke: #ffffff; stroke-width: 0.8"/>
     <use xlink:href="#m40f5f2824d" x="463.68" y="347.44626" style="fill: #9b2d2d; stroke: #ffffff; stroke-width: 0.8"/>
    </g>
   </g>
   <g id="line2d_13">
    <defs>
     <path id="ma629936eec" d="M 0 3 
C 0.795609 3 1.55874 2.683901 2.12132 2.12132 
C 2.683901 1.55874 3 0.795609 3 0 
C 3 -0.795609 2.683901 -1.55874 2.12132 -2.12132 
C 1.55874 -2.683901 0.795609 -3 0 -3 
C -0.795609 -3 -1.55874 -2.683901 -2.12132 -2.12132 
C -2.683901 -1.55874 -3 -0.795609 -3 0 
C -3 0.795609 -2.683901 1.55874 -2.12132 2.12132 
C -1.55874 2.683901 -0.795609 3 0 3 
z
" style="stroke: #ffffff; stroke-width: 0.8"/>
    </defs>
    <g clip-path="url(#pb6a1fd2d42)">
     <use xlink:href="#ma629936eec" x="137.7792" y="113.58711" style="fill: #cf7a30; stroke: #ffffff; stroke-width: 0.8"/>
     <use xlink:href="#ma629936eec" x="300.7296" y="99.10026" style="fill: #cf7a30; stroke: #ffffff; stroke-width: 0.8"/>
     <use xlink:href="#ma629936eec" x="463.68" y="261.76689" style="fill: #cf7a30; stroke: #ffffff; stroke-width: 0.8"/>
    </g>
   </g>
   <g id="line2d_14">
    <defs>
     <path id="m419e47ca0f" d="M 0 2.25 
C 0.596707 2.25 1.169055 2.012926 1.59099 1.59099 
C 2.012926 1.169055 2.25 0.596707 2.25 0 
C 2.25 -0.596707 2.012926 -1.169055 1.59099 -1.59099 
C 1.169055 -2.012926 0.596707 -2.25 0 -2.25 
C -0.596707 -2.25 -1.169055 -2.012926 -1.59099 -1.59099 
C -2.012926 -1.169055 -2.25 -0.596707 -2.25 0 
C -2.25 0.596707 -2.012926 1.169055 -1.59099 1.59099 
C -1.169055 2.012926 -0.596707 2.25 0 2.25 
z
" style="stroke: #ffffff; stroke-width: 0.8"/>
    </defs>
    <g clip-path="url(#pb6a1fd2d42)">
     <use xlink:href="#m419e47ca0f" x="137.7792" y="84.1995" style="fill: #5b7f93; stroke: #ffffff; stroke-width: 0.8"/>
     <use xlink:href="#m419e47ca0f" x="300.7296" y="84.1995" style="fill: #5b7f93; stroke: #ffffff; stroke-width: 0.8"/>
     <use xlink:href="#m419e47ca0f" x="463.68" y="166.9815" style="fill: #5b7f93; stroke: #ffffff; stroke-width: 0.8"/>
    </g>
   </g>
   <g id="line2d_15">
    <defs>
     <path id="m53323b8c9a" d="M 0 2.25 
C 0.596707 2.25 1.169055 2.012926 1.59099 1.59099 
C 2.012926 1.169055 2.25 0.596707 2.25 0 
C 2.25 -0.596707 2.012926 -1.169055 1.59099 -1.59099 
C 1.169055 -2.012926 0.596707 -2.25 0 -2.25 
C -0.596707 -2.25 -1.169055 -2.012926 -1.59099 -1.59099 
C -2.012926 -1.169055 -2.25 -0.596707 -2.25 0 
C -2.25 0.596707 -2.012926 1.169055 -1.59099 1.59099 
C -1.169055 2.012926 -0.596707 2.25 0 2.25 
z
" style="stroke: #ffffff; stroke-width: 0.8"/>
    </defs>
    <g clip-path="url(#pb6a1fd2d42)">
     <use xlink:href="#m53323b8c9a" x="137.7792" y="84.1995" style="fill: #9aa0a6; stroke: #ffffff; stroke-width: 0.8"/>
     <use xlink:href="#m53323b8c9a" x="300.7296" y="84.1995" style="fill: #9aa0a6; stroke: #ffffff; stroke-width: 0.8"/>
     <use xlink:href="#m53323b8c9a" x="463.68" y="111.93147" style="fill: #9aa0a6; stroke: #ffffff; stroke-width: 0.8"/>
    </g>
   </g>
  </g>
  <g id="text_27">
   <text style="fill: #1a1a1a; font: 700 14.5px 'TeX Gyre Pagella', 'Palatino', 'DejaVu Serif', serif; text-anchor: start" x="26.496" y="21.78" transform="rotate(-0 26.496 21.78)">SPARRING only pulls ahead when the proof lies outside the documents</text>
  </g>
  <g id="text_28">
   <text style="fill: #8a2f2f; font: italic 8.6px 'TeX Gyre Pagella', 'Palatino', 'DejaVu Serif', serif; text-anchor: start" x="26.496" y="428.652" transform="rotate(-0 26.496 428.652)">Directional, LLM-coded (Path-B); per-family n is small (S condition: 17–28 concerns each). External-canon families (security, citations)</text>
  </g>
  <g id="text_29">
   <text style="fill: #8a2f2f; font: italic 8.6px 'TeX Gyre Pagella', 'Palatino', 'DejaVu Serif', serif; text-anchor: start" x="26.496" y="440.8992" transform="rotate(-0 26.496 440.8992)">are now verifier-backed against MITRE/Crossref (§8); in-briefing families remain Path-B. Source: pilots/seeded-defect-2026-06-26/v2-run/aggregate.json · by_dc.</text>
  </g>
 </g>
 <defs>
  <clipPath id="pb6a1fd2d42">
   <rect x="56.304" y="63.504" width="407.376" height="331.128"/>
  </clipPath>
 </defs>
</svg>
