<?xml version="1.0" encoding="utf-8" standalone="no"?>
<svg xmlns="http://www.w3.org/2000/svg" xmlns:xlink="http://www.w3.org/1999/xlink"
     width="520pt" height="210pt" viewBox="0 0 520 210" version="1.1">
  <defs>
    <marker id="arrow" markerWidth="8" markerHeight="8" refX="6" refY="3" orient="auto" markerUnits="userSpaceOnUse">
      <path d="M0,0 L6,3 L0,6 Z" fill="#46707d"/>
    </marker>
    <style>
      text { font-family: 'TeX Gyre Pagella','Palatino','DejaVu Serif',serif; }
      .ttl { font-size: 10.5px; font-weight: 700; fill: #1a1a1a; }
      .det { font-size: 8px; fill: #444444; }
      .h1  { font-size: 13px; font-weight: 700; fill: #1a1a1a; }
      .lbl { font-size: 8.5px; font-style: italic; }
    </style>
  </defs>

  <rect x="0" y="0" width="520" height="210" fill="#ffffff"/>

  <text class="h1" x="260" y="26" text-anchor="middle">How one concern is checked, end to end</text>

  <!-- boxes 0-3: existence half (no model). box4: the model. -->
  <!-- box0 -->
  <rect x="12"  y="60" width="88" height="64" rx="6" fill="#eef3f4" stroke="#46707d" stroke-width="1.5"/>
  <text class="ttl" x="56"  y="88"  text-anchor="middle">Concern cites</text>
  <text class="det" x="56"  y="104" text-anchor="middle">e.g. CWE‑640</text>
  <!-- box1 -->
  <rect x="114" y="60" width="88" height="64" rx="6" fill="#eef3f4" stroke="#46707d" stroke-width="1.5"/>
  <text class="ttl" x="158" y="88"  text-anchor="middle">Classify</text>
  <text class="det" x="158" y="104" text-anchor="middle">by shape (regex)</text>
  <!-- box2 -->
  <rect x="216" y="60" width="88" height="64" rx="6" fill="#eef3f4" stroke="#46707d" stroke-width="1.5"/>
  <text class="ttl" x="260" y="88"  text-anchor="middle">Look up</text>
  <text class="det" x="260" y="104" text-anchor="middle">MITRE · 1 API call</text>
  <!-- box3 -->
  <rect x="318" y="60" width="88" height="64" rx="6" fill="#eef3f4" stroke="#46707d" stroke-width="1.5"/>
  <text class="ttl" x="362" y="88"  text-anchor="middle">Exists?</text>
  <text class="det" x="362" y="104" text-anchor="middle">404 → refuted</text>
  <!-- box4: the only model -->
  <rect x="420" y="60" width="88" height="64" rx="6" fill="#f7ede0" stroke="#b5772e" stroke-width="1.5"/>
  <text class="ttl" x="464" y="88"  text-anchor="middle">Backs claim?</text>
  <text class="det" x="464" y="104" text-anchor="middle">cross‑vendor LLM</text>

  <!-- arrows -->
  <line x1="100" y1="92" x2="112" y2="92" stroke="#46707d" stroke-width="1.5" marker-end="url(#arrow)"/>
  <line x1="202" y1="92" x2="214" y2="92" stroke="#46707d" stroke-width="1.5" marker-end="url(#arrow)"/>
  <line x1="304" y1="92" x2="316" y2="92" stroke="#46707d" stroke-width="1.5" marker-end="url(#arrow)"/>
  <line x1="406" y1="92" x2="418" y2="92" stroke="#46707d" stroke-width="1.5" marker-end="url(#arrow)"/>

  <!-- existence bracket under boxes 0-3 -->
  <path d="M12,138 L12,144 L406,144 L406,138" fill="none" stroke="#46707d" stroke-width="1.2"/>
  <text class="lbl" x="209" y="160" text-anchor="middle" fill="#46707d">existence — no model, no web search (also: DOI→Crossref, RFC→IETF, path→repo, URL→fetch, #fact→briefing)</text>

  <!-- the-model tag under box4 -->
  <path d="M420,138 L420,144 L508,144 L508,138" fill="none" stroke="#b5772e" stroke-width="1.2"/>
  <text class="lbl" x="464" y="160" text-anchor="middle" fill="#9a6a1f">the only model</text>

  <text class="det" x="260" y="192" text-anchor="middle">The classifier reads the citation's <tspan font-style="italic">type</tspan>, never the topic; a citation matching no backend is counted ungrounded.</text>
</svg>
